<svg width="107" height="56" viewBox="0 0 107 56" fill="none" xmlns="http://www.w3.org/2000/svg">
<path d="M3.40126 48.2984C3.70333 47.9589 3.97793 47.6194 4.30745 47.28C4.60952 46.9122 4.91158 46.5727 5.21364 46.2333C5.51571 45.8655 5.79031 45.5544 6.03745 45.2432C6.2846 44.932 6.53174 44.6491 6.72396 44.4228H10.2389C9.52492 45.2432 8.83841 46.0636 8.17936 46.8273C7.49285 47.5911 6.77888 48.3832 5.98253 49.1753C6.4219 49.5996 6.8338 50.024 7.21825 50.5049C7.63015 51.0141 8.04206 51.5233 8.45397 52.089C8.83841 52.6265 9.22285 53.1923 9.55238 53.7298C9.8819 54.2672 10.1565 54.7764 10.3762 55.2291H6.97111C6.75143 54.8613 6.50428 54.4936 6.22968 54.0692C5.95507 53.6449 5.65301 53.2206 5.37841 52.768C5.07634 52.3436 4.74682 51.9193 4.38983 51.5233C4.08777 51.1555 3.75825 50.816 3.40126 50.5332V55.2573H0.435547V39.7552L3.40126 39.2743V48.2984Z" fill="white"/>
<path d="M20.7011 54.8047C20.0696 54.9744 19.4105 55.1159 18.7515 55.2007C17.9276 55.3422 17.0764 55.3988 16.2526 55.3988C15.4837 55.427 14.7422 55.2856 14.0283 55.031C13.4791 54.8047 13.0122 54.4652 12.6278 54.0126C12.2708 53.5317 12.0237 52.9942 11.8864 52.4002C11.7216 51.7495 11.6667 51.0423 11.6667 50.3634V44.3945H14.6324V50.0239C14.6324 51.014 14.7697 51.7212 15.0168 52.1456C15.264 52.5699 15.7308 52.7962 16.4173 52.7962C16.637 52.7962 16.8567 52.7962 17.1038 52.7679C17.351 52.7396 17.5432 52.7396 17.7354 52.683V44.3945H20.7011V54.8047Z" fill="white"/>
<path d="M30.2027 49.7128C30.2027 47.7326 29.4887 46.7708 28.0883 46.7708C27.7862 46.7708 27.4841 46.7991 27.1821 46.8839C26.9349 46.9405 26.6878 47.0537 26.4681 47.1951V52.7397C26.6054 52.768 26.7976 52.7962 27.0173 52.8245C27.237 52.8528 27.4841 52.8528 27.7587 52.8528C28.4727 52.9094 29.1592 52.5982 29.5986 52.0042C30.0105 51.3252 30.2302 50.5332 30.2027 49.7128ZM33.2233 49.8259C33.2233 50.618 33.1135 51.4101 32.8389 52.1739C32.6192 52.8528 32.2622 53.4469 31.7954 53.9561C31.3011 54.4653 30.7245 54.8613 30.0929 55.1159C29.3514 55.3988 28.5825 55.5119 27.7862 55.5119C27.4292 55.5119 27.0448 55.4837 26.6603 55.4554C26.2759 55.4271 25.8914 55.3705 25.507 55.3422C25.15 55.2856 24.793 55.2291 24.436 55.1442C24.079 55.0876 23.777 55.0027 23.5298 54.8896V39.7552L26.4956 39.2743V44.6491C26.8251 44.5077 27.1821 44.3945 27.539 44.3097C27.9235 44.2248 28.3079 44.1965 28.6924 44.1965C29.3789 44.1965 30.0379 44.3097 30.6695 44.6208C31.2187 44.8754 31.713 45.2715 32.0975 45.7524C32.5094 46.2899 32.8114 46.8839 32.9762 47.5346C33.141 48.2418 33.2233 49.0339 33.2233 49.8259Z" fill="white"/>
<path d="M35.0083 49.8824C34.9808 49.0338 35.1456 48.1851 35.4202 47.393C35.6674 46.7141 36.0518 46.1201 36.5461 45.5826C37.0129 45.1017 37.5347 44.7339 38.1388 44.5076C38.7429 44.253 39.3745 44.1399 40.0061 44.1399C41.4889 44.1399 42.6697 44.6208 43.521 45.5543C44.3723 46.4878 44.8116 47.874 44.8116 49.6561C44.8116 49.8259 44.8116 50.0239 44.7842 50.2502C44.7567 50.4765 44.7567 50.6462 44.7567 50.816H38.0289C38.0839 51.41 38.3859 51.9758 38.8802 52.3153C39.4843 52.7113 40.1983 52.9093 40.9123 52.881C41.434 52.881 41.9832 52.8245 42.505 52.7396C42.9443 52.6547 43.3837 52.5133 43.7956 52.3435L44.2075 54.8329C44.0153 54.9461 43.7956 55.0027 43.5759 55.0875C43.2739 55.1724 42.9718 55.2573 42.6697 55.2856C42.3402 55.3421 42.0107 55.3987 41.6262 55.4553C41.2693 55.4836 40.8848 55.5119 40.5004 55.5119C39.6491 55.5402 38.8253 55.3987 38.0289 55.0875C37.3699 54.8329 36.7932 54.4369 36.2989 53.9277C35.8321 53.4185 35.5026 52.7962 35.2829 52.1455C35.1181 51.3817 35.0083 50.6462 35.0083 49.8824ZM41.9832 48.7226C41.9832 48.468 41.9283 48.2134 41.8459 47.9588C41.791 47.7042 41.6537 47.5062 41.5164 47.3082C41.3516 47.1102 41.1594 46.9404 40.9397 46.8273C40.6651 46.6858 40.3905 46.6293 40.0885 46.6293C39.7864 46.6293 39.5118 46.6858 39.2372 46.8273C39.0175 46.9404 38.7978 47.0819 38.6331 47.2799C38.4683 47.4779 38.331 47.7042 38.2486 47.9588C38.1662 48.2134 38.1113 48.468 38.0839 48.7226H41.9832Z" fill="white"/>
<path d="M53.434 47.1102C53.1594 47.0537 52.8573 46.9688 52.5004 46.9122C52.1159 46.8273 51.7315 46.7991 51.347 46.7991C51.1273 46.7991 50.9077 46.8273 50.6605 46.8556C50.4683 46.8839 50.2761 46.9122 50.0839 46.9688V55.2008H47.1181V44.9603C47.7223 44.734 48.3538 44.5643 48.9854 44.4228C49.7818 44.2248 50.6056 44.1399 51.4019 44.1682C51.5942 44.1682 51.7864 44.1965 51.9786 44.1965C52.1983 44.1965 52.418 44.2248 52.6651 44.2814C52.8848 44.3097 53.1045 44.338 53.3516 44.3945C53.5438 44.4228 53.7361 44.4794 53.9283 44.5643L53.434 47.1102Z" fill="white"/>
<path d="M55.5211 44.7622C56.1527 44.5925 56.8118 44.4511 57.4708 44.3379C58.2946 44.1965 59.1459 44.1399 59.9697 44.1399C60.7112 44.1116 61.4526 44.253 62.1666 44.5076C62.7158 44.7057 63.2101 45.0451 63.567 45.4977C63.924 45.9504 64.1712 46.4878 64.3085 47.0536C64.4732 47.7042 64.5282 48.3832 64.5282 49.0621V55.1441H61.5899V49.4581C61.5899 48.468 61.4526 47.7891 61.2054 47.3648C60.9583 46.9687 60.4915 46.7424 59.805 46.7424C59.5853 46.7424 59.3656 46.7424 59.1184 46.7707C58.8713 46.7707 58.6791 46.799 58.4869 46.8273V55.1441H55.5211V44.7622Z" fill="white"/>
<path d="M66.7797 49.8824C66.7523 49.0338 66.917 48.1851 67.1916 47.393C67.4388 46.7141 67.8232 46.1201 68.3175 45.5826C68.7843 45.1017 69.3061 44.7339 69.9102 44.5076C70.5143 44.253 71.1459 44.1399 71.7775 44.1399C73.2604 44.1399 74.4412 44.6208 75.2924 45.5543C76.1437 46.4878 76.5831 47.874 76.5831 49.6844C76.5831 49.8542 76.5831 50.0522 76.5556 50.2785C76.5281 50.5048 76.5281 50.6745 76.5281 50.8443H69.8004C69.8553 51.4383 70.1573 52.0041 70.6516 52.3435C71.2558 52.7396 71.9697 52.9376 72.6837 52.9093C73.2054 52.9093 73.7546 52.8527 74.2764 52.7679C74.7158 52.683 75.1551 52.5416 75.5945 52.3435L76.0064 54.8329C75.8142 54.9461 75.5945 55.0027 75.3748 55.0875C75.0727 55.1724 74.7707 55.2573 74.4686 55.2856C74.1391 55.3421 73.8096 55.3987 73.4251 55.4553C73.0681 55.4836 72.6837 55.5119 72.2992 55.5119C71.448 55.5402 70.6242 55.3987 69.8278 55.0875C69.1688 54.8329 68.5921 54.4369 68.0978 53.9277C67.631 53.4185 67.3015 52.7962 67.0818 52.1455C66.8621 51.3817 66.7523 50.6179 66.7797 49.8824ZM73.7272 48.7226C73.7272 48.468 73.6723 48.2134 73.5899 47.9588C73.535 47.7042 73.3977 47.5062 73.2604 47.3082C73.0956 47.1102 72.9034 46.9404 72.6837 46.8273C72.4091 46.6858 72.1345 46.6293 71.8324 46.6293C71.5303 46.6293 71.2558 46.6858 70.9812 46.8273C70.7615 46.9404 70.5692 47.0819 70.4045 47.2799C70.2397 47.4779 70.1024 47.7042 70.02 47.9588C69.9377 48.2134 69.8827 48.468 69.8553 48.7226H73.7272Z" fill="white"/>
<path d="M78.7798 41.7071L81.7455 41.2262V44.3946H85.3154V46.9405H81.7455V50.7312C81.718 51.2687 81.8279 51.8062 82.075 52.2588C82.2947 52.6265 82.7341 52.8246 83.4206 52.8246C83.7501 52.8246 84.0796 52.7963 84.3817 52.7397C84.7112 52.6831 85.0133 52.5983 85.3154 52.4851L85.7273 54.8613C85.3428 55.0311 84.9309 55.1442 84.519 55.2574C83.9973 55.3705 83.4481 55.4271 82.8988 55.4271C82.2123 55.4554 81.5258 55.3423 80.8942 55.0877C80.4 54.8896 79.9606 54.5502 79.6311 54.1541C79.3015 53.7298 79.0819 53.2206 78.9446 52.6831C78.8073 52.0608 78.7523 51.4101 78.7798 50.7878V41.7071Z" fill="white"/>
<path d="M86.8259 49.8824C86.7985 49.0338 86.9632 48.1851 87.2378 47.393C87.485 46.7141 87.8694 46.1201 88.3637 45.5826C88.8305 45.1017 89.3523 44.7339 89.9564 44.5076C90.5605 44.253 91.1921 44.1399 91.8237 44.1399C93.3066 44.1399 94.4874 44.6208 95.3386 45.5543C96.1899 46.4878 96.6293 47.874 96.6293 49.6844C96.6293 49.8542 96.6293 50.0522 96.6018 50.2785C96.6018 50.5048 96.5743 50.6745 96.5743 50.8443H89.874C89.9289 51.4383 90.231 52.0041 90.7253 52.3435C91.3294 52.7396 92.0434 52.9376 92.7573 52.9093C93.2791 52.9093 93.8283 52.8527 94.3501 52.7679C94.7894 52.683 95.2288 52.5416 95.6407 52.3435L96.0526 54.8329C95.8604 54.9461 95.6407 55.0027 95.421 55.0875C95.1189 55.1724 94.8169 55.2573 94.5148 55.2856C94.1853 55.3421 93.8558 55.3987 93.4713 55.4553C93.1143 55.4836 92.7299 55.5119 92.3454 55.5119C91.4942 55.5402 90.6704 55.3987 89.874 55.0875C89.215 54.8329 88.6383 54.4369 88.144 53.9277C87.6772 53.4185 87.3477 52.7962 87.128 52.1455C86.9358 51.3817 86.8259 50.6179 86.8259 49.8824ZM93.7734 48.7226C93.7734 48.468 93.7185 48.2134 93.6361 47.9588C93.5812 47.7042 93.4439 47.5062 93.3066 47.3082C93.1418 47.1102 92.9496 46.9404 92.7299 46.8273C92.4553 46.6858 92.1807 46.6293 91.8786 46.6293C91.5766 46.6293 91.3019 46.6858 91.0274 46.8273C90.8077 46.9404 90.588 47.0819 90.4232 47.2799C90.2585 47.4779 90.1212 47.7042 90.0388 47.9588C89.9564 48.2134 89.9015 48.468 89.874 48.7226H93.7734Z" fill="white"/>
<path d="M101.956 52.9942C102.341 53.0225 102.753 52.9659 103.11 52.8245C103.329 52.7113 103.467 52.4567 103.439 52.2021C103.412 51.9192 103.247 51.6646 103 51.5798C102.588 51.3252 102.121 51.0989 101.654 50.9574C101.187 50.7877 100.776 50.5897 100.391 50.3916C100.034 50.2219 99.732 49.9956 99.43 49.7127C99.1554 49.4298 98.9631 49.1186 98.8258 48.7509C98.6611 48.3266 98.6062 47.874 98.6062 47.4213C98.5787 46.4878 98.9906 45.5826 99.7046 45.0168C100.446 44.4227 101.435 44.1399 102.698 44.1399C103.302 44.1399 103.933 44.1964 104.538 44.3379C105.004 44.4227 105.471 44.5359 105.938 44.7056L105.416 47.1102C105.032 46.9687 104.675 46.8838 104.29 46.7707C103.851 46.6575 103.384 46.6293 102.945 46.6293C102.011 46.6293 101.544 46.8838 101.544 47.4213C101.544 47.5345 101.572 47.6476 101.599 47.7608C101.654 47.874 101.737 47.9588 101.846 48.0437C101.956 48.1285 102.121 48.2134 102.313 48.3266C102.506 48.4397 102.78 48.5529 103.11 48.666C103.659 48.8641 104.208 49.1186 104.702 49.4015C105.087 49.5996 105.416 49.8542 105.691 50.1936C105.938 50.4482 106.103 50.7594 106.213 51.1271C106.323 51.5232 106.377 51.9192 106.377 52.3153C106.432 53.2771 105.993 54.2106 105.197 54.7481C104.428 55.2856 103.329 55.5684 101.901 55.5684C101.105 55.5967 100.336 55.5119 99.5673 55.3139C99.1279 55.2007 98.716 55.0593 98.3041 54.9178L98.7984 52.4284C99.2927 52.6264 99.8144 52.7962 100.336 52.9093C100.885 52.9376 101.407 52.9942 101.956 52.9942Z" fill="white"/>
<path d="M65.8149 8.39091C65.6493 7.85958 65.2516 7.42787 64.7546 7.1622L54.648 2.31375C54.3829 2.18091 54.0847 2.14771 53.8196 2.14771C53.5545 2.14771 53.2563 2.14771 52.9912 2.21412L42.8846 7.09578C42.3876 7.32824 42.0231 7.75995 41.8906 8.3245L39.4053 19.2501C39.3059 19.8147 39.4385 20.3792 39.7698 20.8441L46.7616 29.5116C47.1592 29.9101 47.7225 30.1757 48.2859 30.2089H59.4196C60.0161 30.2754 60.5794 30.0097 60.9439 29.5116L67.9357 20.8441C68.267 20.3792 68.3996 19.8147 68.3333 19.2501L65.8149 8.39091Z" fill="white" stroke="white" stroke-width="3.60987" stroke-miterlimit="10"/>
<path d="M65.8149 8.39091C65.6493 7.85958 65.2516 7.42787 64.7546 7.1622L54.648 2.31375C54.3829 2.18091 54.0847 2.14771 53.8196 2.14771C53.5545 2.14771 53.2563 2.14771 52.9912 2.21412L42.8846 7.09578C42.3876 7.32824 42.0231 7.75995 41.8906 8.3245L39.4053 19.2501C39.3059 19.8147 39.4385 20.3792 39.7698 20.8441L46.7616 29.5116C47.1592 29.9101 47.7225 30.1757 48.2859 30.2089H59.4196C60.0161 30.2754 60.5794 30.0097 60.9439 29.5116L67.9357 20.8441C68.267 20.3792 68.3996 19.8147 68.3333 19.2501L65.8149 8.39091Z" fill="#326DE6"/>
<path d="M64.1389 18.4874C64.1062 18.4874 64.0735 18.4874 64.0735 18.4552C64.0735 18.423 64.008 18.423 63.9426 18.423C63.8118 18.3908 63.6809 18.3908 63.5501 18.3908C63.4846 18.3908 63.4192 18.3908 63.3538 18.3586H63.3211C62.9612 18.3264 62.5687 18.2621 62.2088 18.1655C62.1107 18.1334 62.0125 18.0368 61.9798 17.9403C62.0125 17.9403 61.9798 17.9403 61.9798 17.9403L61.7181 17.8759C61.849 16.9427 61.7836 15.9773 61.5873 15.044C61.3583 14.1108 60.9657 13.2097 60.4423 12.4052L60.6386 12.2121V12.1799C60.6386 12.0834 60.6713 11.9547 60.7367 11.8903C61.0312 11.6329 61.3256 11.4398 61.6527 11.2467C61.7181 11.2145 61.7836 11.1823 61.849 11.1502C61.9798 11.0858 62.078 11.0214 62.2088 10.9571C62.2415 10.9249 62.2743 10.9249 62.307 10.8927C62.3397 10.8605 62.307 10.8605 62.307 10.8283C62.6014 10.6031 62.6668 10.2169 62.4378 9.92728C62.3397 9.79856 62.1434 9.70202 61.9798 9.70202C61.8163 9.70202 61.6527 9.76638 61.5219 9.86292L61.4891 9.8951C61.4564 9.92728 61.4237 9.95946 61.391 9.95946C61.2929 10.056 61.1947 10.1525 61.1293 10.2491C61.0966 10.3135 61.0312 10.3456 60.9984 10.3778C60.7695 10.6353 60.475 10.8927 60.1806 11.0858C60.1152 11.118 60.0498 11.1502 59.9843 11.1502C59.9516 11.1502 59.8862 11.1502 59.8535 11.118H59.8208L59.5591 11.2789C59.2974 11.0214 59.0029 10.764 58.7412 10.5065C57.5309 9.5733 56.0261 8.99404 54.4885 8.83314L54.4558 8.57569V8.60787C54.3577 8.54351 54.325 8.44697 54.2923 8.35043C54.2923 7.99644 54.2923 7.64245 54.3577 7.25628V7.2241C54.3577 7.15974 54.3904 7.09538 54.3904 7.03102C54.4231 6.9023 54.4231 6.77357 54.4558 6.64485V6.45177C54.4885 6.12996 54.2268 5.80815 53.8997 5.77597C53.7034 5.74379 53.5072 5.84033 53.3436 6.00124C53.2127 6.12996 53.1473 6.29086 53.1473 6.45177V6.61267C53.1473 6.74139 53.18 6.87012 53.2127 6.99884C53.2454 7.0632 53.2454 7.12756 53.2454 7.19192V7.2241C53.3109 7.57809 53.3109 7.93208 53.3109 8.31825C53.2782 8.41479 53.2454 8.51133 53.1473 8.57569V8.64006L53.1146 8.8975C52.7548 8.92968 52.3949 8.99404 52.0023 9.0584C50.4648 9.38021 49.0582 10.1847 47.9786 11.3111L47.7824 11.1823H47.7497C47.7169 11.1823 47.6842 11.2145 47.6188 11.2145C47.5534 11.2145 47.4879 11.1823 47.4225 11.1502C47.1281 10.9249 46.8337 10.6674 46.6047 10.41C46.572 10.3456 46.5066 10.3135 46.4738 10.2813C46.3757 10.1847 46.3103 10.0882 46.2121 9.99164C46.1794 9.95946 46.1467 9.95946 46.114 9.92728C46.0813 9.8951 46.0813 9.8951 46.0813 9.8951C45.9504 9.79856 45.7869 9.7342 45.6233 9.7342C45.427 9.7342 45.2635 9.79856 45.1653 9.95946C44.969 10.2491 45.0345 10.6353 45.2962 10.8605C45.3289 10.8605 45.3289 10.8927 45.3289 10.8927C45.3289 10.8927 45.3943 10.9571 45.427 10.9571C45.5252 11.0214 45.656 11.0858 45.7869 11.1502C45.8523 11.1823 45.9177 11.2145 45.9831 11.2467C46.3103 11.4398 46.6374 11.6329 46.8991 11.8903C46.9645 11.9547 47.03 12.0834 46.9973 12.1799V12.1478L47.1935 12.3408C47.1608 12.4052 47.1281 12.4374 47.0954 12.5017C46.0813 14.0786 45.656 15.9451 45.9504 17.7794L45.6887 17.8437C45.6887 17.8759 45.656 17.8759 45.656 17.8759C45.6233 17.9725 45.5252 18.0368 45.427 18.1012C45.0672 18.1977 44.7073 18.2621 44.3148 18.2943C44.2494 18.2943 44.1839 18.2943 44.1185 18.3264C43.9876 18.3264 43.8568 18.3586 43.7259 18.3586C43.6932 18.3586 43.6605 18.3908 43.5951 18.3908C43.5624 18.3908 43.5624 18.3908 43.5297 18.423C43.1698 18.4874 42.9408 18.8092 43.0063 19.1631C43.0717 19.4528 43.3661 19.6459 43.6605 19.6137C43.7259 19.6137 43.7587 19.6137 43.8241 19.5815C43.8568 19.5815 43.8568 19.5815 43.8568 19.5493C43.8568 19.5171 43.9549 19.5493 43.9876 19.5493C44.1185 19.5171 44.2494 19.4528 44.3475 19.4206C44.4129 19.3884 44.4783 19.3562 44.5438 19.3562H44.5765C44.9363 19.2275 45.2635 19.131 45.656 19.0666H45.6887C45.7869 19.0666 45.885 19.0988 45.9504 19.1631C45.9831 19.1631 45.9831 19.1953 45.9831 19.1953L46.2776 19.1631C46.7683 20.6435 47.6842 21.9629 48.96 22.9283C49.2545 23.1536 49.5162 23.3466 49.8433 23.5075L49.6797 23.7328C49.6797 23.765 49.7124 23.765 49.7124 23.765C49.7779 23.8615 49.7779 23.9903 49.7451 24.0868C49.6143 24.4086 49.418 24.7304 49.2217 25.02V25.0522C49.189 25.1166 49.1563 25.1488 49.0909 25.2131C49.0255 25.2775 48.96 25.4062 48.8619 25.5349C48.8292 25.5671 48.8292 25.5993 48.7965 25.6315C48.7965 25.6315 48.7965 25.6637 48.7638 25.6637C48.6002 25.9855 48.731 26.3716 49.0255 26.5325C49.0909 26.5647 49.189 26.5969 49.2545 26.5969C49.5162 26.5969 49.7451 26.436 49.876 26.2107C49.876 26.2107 49.876 26.1785 49.9087 26.1785C49.9087 26.1464 49.9414 26.1142 49.9741 26.082C50.0069 25.9533 50.0723 25.8567 50.105 25.728L50.1704 25.5349C50.2686 25.1809 50.4321 24.8591 50.5957 24.5373C50.6611 24.4408 50.7593 24.3764 50.8574 24.3442C50.8901 24.3442 50.8901 24.3442 50.8901 24.3121L51.021 24.0546C51.9369 24.4086 52.8856 24.5695 53.867 24.5695C54.4558 24.5695 55.0447 24.5051 55.6335 24.3442C55.9933 24.2799 56.3532 24.1512 56.6803 24.0546L56.8112 24.2799C56.8439 24.2799 56.8439 24.2799 56.8439 24.3121C56.942 24.3442 57.0402 24.4086 57.1056 24.5051C57.2692 24.827 57.4327 25.1488 57.5309 25.5027V25.5349L57.5963 25.728C57.629 25.8567 57.6617 25.9855 57.7271 26.082C57.7598 26.1142 57.7598 26.1464 57.7926 26.1785C57.7926 26.1785 57.7926 26.2107 57.8253 26.2107C57.9561 26.436 58.1851 26.5969 58.4468 26.5969C58.545 26.5969 58.6104 26.5647 58.7085 26.5325C58.8394 26.4682 58.9702 26.3394 59.0029 26.1785C59.0357 26.0176 59.0357 25.8567 58.9702 25.6958C58.9702 25.6637 58.9375 25.6637 58.9375 25.6637C58.9375 25.6315 58.9048 25.5993 58.8721 25.5671C58.8067 25.4384 58.7412 25.3418 58.6431 25.2453C58.6104 25.1809 58.5777 25.1488 58.5122 25.0844V25.02C58.2833 24.7304 58.1197 24.4086 57.9888 24.0868C57.9561 23.9903 57.9561 23.8615 58.0216 23.765C58.0216 23.7328 58.0543 23.7328 58.0543 23.7328L57.9561 23.4754C59.6245 22.4778 60.9003 20.9331 61.4891 19.0988L61.7508 19.131C61.7836 19.131 61.7836 19.0988 61.7836 19.0988C61.849 19.0344 61.9471 19.0022 62.0453 19.0022H62.078C62.4378 19.0666 62.7977 19.1631 63.1248 19.2919H63.1575C63.2229 19.3241 63.2884 19.3562 63.3538 19.3562C63.4846 19.4206 63.5828 19.485 63.7136 19.5171C63.7463 19.5171 63.7791 19.5493 63.8445 19.5493C63.8772 19.5493 63.8772 19.5493 63.9099 19.5815C63.9753 19.6137 64.008 19.6137 64.0735 19.6137C64.3679 19.6137 64.6296 19.4206 64.7277 19.1631C64.695 18.8092 64.4333 18.5517 64.1389 18.4874ZM54.6848 17.4898L53.8016 17.9081L52.9183 17.4898L52.6893 16.5565L53.3109 15.7842H54.2923L54.9138 16.5565L54.6848 17.4898ZM60.0171 15.398C60.1806 16.0738 60.2133 16.7496 60.1479 17.4254L57.0402 16.5565C56.7457 16.4921 56.5822 16.2025 56.6476 15.9129C56.6803 15.8164 56.713 15.752 56.7785 15.6876L59.2319 13.4993C59.5918 14.0786 59.8535 14.7222 60.0171 15.398ZM58.2505 12.3087L55.5681 14.1751C55.3391 14.3039 55.012 14.2717 54.8484 14.0464C54.783 13.9821 54.7502 13.9177 54.7502 13.8211L54.554 10.5709C55.9933 10.7318 57.2692 11.3432 58.2505 12.3087ZM52.3295 10.6674L52.9837 10.5387L52.8202 13.7568C52.8202 14.0464 52.5585 14.2717 52.2641 14.2717C52.1659 14.2717 52.1005 14.2395 52.0023 14.2073L49.2872 12.3087C50.1377 11.5041 51.1845 10.9249 52.3295 10.6674ZM48.3385 13.4993L50.7593 15.6233C50.9882 15.8164 51.021 16.1382 50.8247 16.3634C50.7593 16.46 50.6938 16.4921 50.563 16.5243L47.3898 17.4254C47.2917 16.0738 47.6188 14.69 48.3385 13.4993ZM47.7824 18.9379L51.021 18.3908C51.2827 18.3908 51.5444 18.5517 51.5771 18.8092C51.6098 18.9057 51.6098 19.0344 51.5444 19.131L50.3013 22.0916C49.1563 21.3514 48.2403 20.2251 47.7824 18.9379ZM55.2082 22.9283C54.7502 23.0248 54.2923 23.0892 53.8016 23.0892C53.1146 23.0892 52.3949 22.9605 51.7406 22.7674L53.3436 19.9033C53.5072 19.7102 53.7689 19.6459 53.9978 19.7746C54.096 19.8389 54.1614 19.9033 54.2596 19.9998L55.8298 22.7996C55.6335 22.8317 55.4372 22.8639 55.2082 22.9283ZM59.1992 20.1286C58.7085 20.9009 58.0216 21.5767 57.2364 22.0594L55.9606 19.0344C55.8952 18.777 56.0261 18.5195 56.255 18.423C56.3532 18.3908 56.4513 18.3586 56.5495 18.3586L59.8208 18.9057C59.6572 19.3562 59.4609 19.7746 59.1992 20.1286Z" fill="white"/>
</svg>
